<svg id="svg5" xmlns="http://www.w3.org/2000/svg" viewBox="0 0 512.98 729.51"><defs><style>.cls-1{fill:#999caa;}</style></defs><g id="layer1"><path id="path199" class="cls-1" d="M256.06,279.06c-11.65-4.75-11.61-4.34-11.62-107.36,0-124.53,5-141.28,48.84-163,58.63-29.09,126.63,19.24,114.59,81.44-3.91,20.15-5.07,19.15,22,19,44.34-.25,70.86,20.54,81.16,63.61,9.81,41-17.84,89.81-58.42,103.12-13.31,4.37-186.72,7.2-196.51,3.21Z"/><path id="path197" class="cls-1" d="M218.34,729.16c-7.79,0-7.66-10.68-7.72-41.46-.07-40.32-.07-40.31-41.66-40.3-41.15,0-41.13.1-41.24-32.58-.11-30.15.15-30.14,38.15-30.18,45.31,0,45.23.08,44.93-47.3-.24-39.12,1.8-35.77-25.84-42.63C-19.14,444-67.4,181.91,106.32,67.58c53-34.89,128.54-52.4,118.8-27.54-.62,1.6-3.28,12-5.89,23.19-5.88,25.08-8.5,28.19-29.36,34.94-137.62,44.56-169,217.77-55.08,303.63,79.43,59.85,193.22,43.42,251.77-36.35C394.24,355,407.79,326,409.77,323c3.62-5.47,12.86-12.53,24.37-13.75a220.15,220.15,0,0,0,26.27-5c22.83-6,24.63-.91,12.49,34.85C444.75,422,376.73,479.53,284.38,498.65c-7.43,1.54-8,1.54-7.94,38.16.13,46.93.34,47.06,42.29,47.83,33.58.61,34,.28,34.15,30.85.12,31.2,6,33.41-35.7,32.81-40.53-.59-40.4-.35-41.16,39.67-.19,9.77.79,41.39-8.25,41.43-57.26.24,9.06.07-49.43-.24Z"/></g></svg>