<?xml version="1.0" encoding="UTF-8" standalone="no"?>
<!-- Created with Inkscape (http://www.inkscape.org/) -->

<svg
   width="180.96747mm"
   height="257.35596mm"
   viewBox="0 0 180.96747 257.35596"
   version="1.1"
   id="svg5"
   xml:space="preserve"
   xmlns:inkscape="http://www.inkscape.org/namespaces/inkscape"
   xmlns:sodipodi="http://sodipodi.sourceforge.net/DTD/sodipodi-0.dtd"
   xmlns="http://www.w3.org/2000/svg"
   xmlns:svg="http://www.w3.org/2000/svg"><sodipodi:namedview
     id="namedview7"
     pagecolor="#ffffff"
     bordercolor="#000000"
     borderopacity="0.25"
     inkscape:showpageshadow="2"
     inkscape:pageopacity="0.0"
     inkscape:pagecheckerboard="0"
     inkscape:deskcolor="#d1d1d1"
     inkscape:document-units="mm"
     showgrid="false"
     showguides="true"><sodipodi:guide
       position="61.157583,28.971803"
       orientation="0,-1"
       id="guide299"
       inkscape:locked="false" /><sodipodi:guide
       position="97.648876,97.883751"
       orientation="1,0"
       id="guide301"
       inkscape:locked="false" /><sodipodi:guide
       position="124.3613,90.326951"
       orientation="1,0"
       id="guide303"
       inkscape:locked="false" /><sodipodi:guide
       position="74.2755,81.188489"
       orientation="1,0"
       id="guide305"
       inkscape:locked="false" /><sodipodi:guide
       position="45.102721,72.401507"
       orientation="1,0"
       id="guide307"
       inkscape:locked="false" /></sodipodi:namedview><defs
     id="defs2" /><g
     inkscape:label="Шар 1"
     inkscape:groupmode="layer"
     id="layer1"
     transform="translate(-16.757632,-29.096437)"><path
       style="fill:#e72125;stroke-width:0.648471"
       d="m 107.08986,127.54288 c -4.11055,-1.67484 -4.09486,-1.52982 -4.09756,-37.873592 -0.003,-43.932132 1.76653,-49.840663 17.22644,-57.511477 20.68426,-10.263002 44.6751,6.787357 40.42512,28.730245 -1.37699,7.109478 -1.78642,6.755355 7.74952,6.702652 15.63957,-0.08644 24.99586,7.247098 28.63149,22.441617 3.46028,14.461655 -6.29628,31.683805 -20.60935,36.379335 -4.69661,1.54077 -65.87063,2.53897 -69.32566,1.13122 z"
       id="path199" /><path
       style="fill:#07706a;stroke-width:0.648471"
       d="m 93.782378,286.32822 c -2.746692,-0.0144 -2.703046,-3.76963 -2.72274,-14.6261 -0.0258,-14.22363 -0.02517,-14.22215 -14.696571,-14.21845 -14.515423,0.004 -14.509248,0.0372 -14.549068,-11.49084 -0.03675,-10.63887 0.05334,-10.63562 13.458095,-10.65007 15.985145,-0.0172 15.956326,0.0304 15.852691,-16.68359 -0.08557,-13.80188 0.631943,-12.61828 -9.117687,-15.0403 C 10.00509,185.73198 -7.0188828,93.268875 54.2642,52.937563 72.967545,40.628613 99.612738,34.451267 96.175876,43.220879 95.954798,43.784975 95.01868,47.46724 94.09561,51.40369 c -2.07427,8.845742 -2.996318,9.943231 -10.355615,12.326031 -48.54875,15.719164 -59.632765,76.822889 -19.43,107.113319 28.020789,21.11201 68.161595,15.317 88.817235,-12.8223 2.71068,-3.69277 7.48934,-13.92305 8.18772,-14.97953 1.2774,-1.93238 4.53786,-4.41982 8.59874,-4.85165 2.29919,-0.24449 6.4693,-1.04044 9.2669,-1.76877 8.05385,-2.09673 8.68984,-0.32121 4.40433,12.29564 -9.93095,29.23745 -33.92559,49.54752 -66.5053,56.2929 -2.62135,0.54273 -2.83232,0.54156 -2.79859,13.46201 0.0432,16.55575 0.11981,16.6009 14.91873,16.87142 11.84436,0.21651 12.00269,0.0991 12.04471,10.88457 0.0429,11.0071 2.10283,11.78782 -12.59404,11.57411 -14.29552,-0.20787 -14.25093,-0.12404 -14.51983,13.99407 -0.0657,3.44956 0.28091,14.6019 -2.90912,14.61564 -20.199918,0.087 3.19647,0.0253 -17.439102,-0.0829 z"
       id="path197"
       sodipodi:nodetypes="sssssssssssssssssssssssss" /></g></svg>
